<svg xmlns="http://www.w3.org/2000/svg" width="2392" height="1055" viewBox="0 0 2392 1055">
  <g id="Standard_logo_positive" data-name="Standard  logo positive" transform="translate(5855 17549)">
    <rect id="Rectangle_1612" data-name="Rectangle 1612" width="2392" height="1055" transform="translate(-5855 -17549)" fill="none"/>
    <g id="Group_2327" data-name="Group 2327" transform="translate(-5571.521 -17339.154)">
      <g id="Layer_2" data-name="Layer 2" transform="translate(0)">
        <g id="Layer_1" data-name="Layer 1">
          <path id="Path_8797" data-name="Path 8797" d="M300.117,0V139.526H178.137C79.728,139.526-.017,219.276-.01,317.648a178.111,178.111,0,0,0,356.221-.024l.546-94.886V0ZM178.137,438.925a121.643,121.643,0,1,1,0-243.287l121.98.018v121.98A121.8,121.8,0,0,1,178.137,438.925Z" transform="translate(0.01)"/>
          <path id="Path_8798" data-name="Path 8798" d="M301.361,38.33a178.111,178.111,0,1,0,0,356.221h178.8V216.441A178.657,178.657,0,0,0,301.361,38.33Zm0,56.822a121.762,121.762,0,0,1,121.98,121.289v121.98H301.361a121.643,121.643,0,1,1,0-243.287Z" transform="translate(325.43 101.196)"/>
          <rect id="Rectangle_1597" data-name="Rectangle 1597" width="56.822" height="56.822" transform="translate(897.397)"/>
          <rect id="Rectangle_1598" data-name="Rectangle 1598" width="56.822" height="356.221" transform="translate(897.397 139.526)"/>
          <path id="Path_8799" data-name="Path 8799" d="M465.451,38.33a178.111,178.111,0,0,0,0,356.221H586.739V534.113h56.822V216.441A178.365,178.365,0,0,0,465.451,38.33Zm0,56.822A121.435,121.435,0,0,1,586.739,216.441l.655,91.258h-.655v30.723H465.451a121.644,121.644,0,1,1,0-243.287Z" transform="translate(758.646 101.196)"/>
          <path id="Path_8800" data-name="Path 8800" d="M592.853,38.33V95.152h-3.64A121.762,121.762,0,0,0,467.159,216.441V394.552H410.41V216.441A178.657,178.657,0,0,1,589.213,38.33Z" transform="translate(1083.565 101.195)"/>
          <rect id="Rectangle_1599" data-name="Rectangle 1599" width="56.822" height="356.221" transform="translate(1768.221 139.526)"/>
          <rect id="Rectangle_1600" data-name="Rectangle 1600" width="56.822" height="56.822" transform="translate(1768.221)"/>
          <g id="Group_2297" data-name="Group 2297" transform="translate(87.398 263.567)">
            <path id="Path_8801" data-name="Path 8801" d="M204.659,111.821c-13.578,7.389-105.017-6.334-105.017-6.334S48.462,81.936,47.37,77.24a28.216,28.216,0,0,0-3.422,1.42l-.655.328-1.383.765-1.056.692A35.273,35.273,0,0,0,24,110.583v2.038h0a90.53,90.53,0,0,0,180.914.146V112Z" transform="translate(-24 -59.642)" fill="#c70d1b"/>
            <path id="Path_8802" data-name="Path 8802" d="M149.87,131.176c-.182.51-.4.983-.619,1.492a37.017,37.017,0,0,1-4.186,6.989,37.857,37.857,0,0,1-27.92,14.742c-24.243.619-53.728-18.419-72.365-36.146,9.027-5.606,19.111-12.558,30.249-21,30.1-22.86,48.632-27.629,59.88-23.515C158.424,82.29,149.943,131.031,149.87,131.176Z" transform="translate(30.862 -72.404)" fill="#f15a24"/>
            <path id="Path_8803" data-name="Path 8803" d="M97.982,106.887l-2.111,1.31-2.111,1.238-.8.473c-43.463,25.481-62.61,17.291-67.2,3.64a21.222,21.222,0,0,1-1.092-5.642,26.718,26.718,0,0,1,3.968-15.58c.437-.619.874-1.238,1.347-1.82h0a4.507,4.507,0,0,1,.655-.8l.8-.983a40.042,40.042,0,0,1,3.64-3.64l1.056-.874h0l1.2-.91,1.31-.91c.437-.328.91-.582,1.347-.874l1.383-.765.655-.328.728-.364,1.42-.837.983-.4.91-.364a30.426,30.426,0,0,1,2.948-.91l1.529-.328,1.492-.291,1.565-.218h4.7a31.025,31.025,0,0,1,4.841.692h0c1.056.255,2.111.546,3.167.91a11.987,11.987,0,0,1,1.6.582l1.2.51A31.671,31.671,0,0,1,76,83.59a11.46,11.46,0,0,1,1.092.874,40.859,40.859,0,0,1,4.077,4.222l8.518,9.719,1.056,1.2c.582.655,1.2,1.274,1.82,1.929,1.6,1.747,3.349,3.64,5.169,5.278A1.682,1.682,0,0,1,97.982,106.887Z" transform="translate(-22.34 -61.048)" fill="#f7931e"/>
          </g>
        </g>
      </g>
    </g>
  </g>
</svg>
